<svg width="43" height="48" viewBox="0 0 43 48" fill="none" xmlns="http://www.w3.org/2000/svg">
<rect width="42.42" height="48" rx="21.21" fill="#131313"/>
<path d="M18.21 26.25C17.86 26.25 17.5642 26.1291 17.3225 25.8875C17.0808 25.6458 16.96 25.35 16.96 25C16.96 24.65 17.0808 24.3541 17.3225 24.1125C17.5642 23.8708 17.86 23.75 18.21 23.75C18.56 23.75 18.8558 23.8708 19.0975 24.1125C19.3392 24.3541 19.46 24.65 19.46 25C19.46 25.35 19.3392 25.6458 19.0975 25.8875C18.8558 26.1291 18.56 26.25 18.21 26.25ZM24.21 26.25C23.86 26.25 23.5642 26.1291 23.3225 25.8875C23.0808 25.6458 22.96 25.35 22.96 25C22.96 24.65 23.0808 24.3541 23.3225 24.1125C23.5642 23.8708 23.86 23.75 24.21 23.75C24.56 23.75 24.8558 23.8708 25.0975 24.1125C25.3392 24.3541 25.46 24.65 25.46 25C25.46 25.35 25.3392 25.6458 25.0975 25.8875C24.8558 26.1291 24.56 26.25 24.21 26.25ZM21.21 32C23.4433 32 25.335 31.225 26.885 29.675C28.435 28.125 29.21 26.2333 29.21 24C29.21 23.6 29.185 23.2125 29.135 22.8375C29.085 22.4625 28.9933 22.1 28.86 21.75C28.51 21.8333 28.16 21.8958 27.81 21.9375C27.46 21.9791 27.0933 22 26.71 22C25.1933 22 23.76 21.675 22.41 21.025C21.06 20.375 19.91 19.4666 18.96 18.3C18.4267 19.6 17.6642 20.7291 16.6725 21.6875C15.6808 22.6458 14.5267 23.3666 13.21 23.85C13.21 23.8833 13.21 23.9083 13.21 23.925C13.21 23.9416 13.21 23.9666 13.21 24C13.21 26.2333 13.985 28.125 15.535 29.675C17.085 31.225 18.9767 32 21.21 32ZM21.2117 33.4999C19.8977 33.4999 18.6627 33.2506 17.5066 32.7519C16.3504 32.2533 15.3447 31.5765 14.4895 30.7217C13.6343 29.8668 12.9572 28.8616 12.4584 27.706C11.9595 26.5503 11.71 25.3156 11.71 24.0016C11.71 22.6877 11.9594 21.4527 12.458 20.2965C12.9567 19.1404 13.6334 18.1347 14.4883 17.2795C15.3431 16.4243 16.3484 15.7472 17.504 15.2483C18.6596 14.7494 19.8944 14.5 21.2083 14.5C22.5223 14.5 23.7573 14.7493 24.9134 15.248C26.0696 15.7467 27.0753 16.4234 27.9305 17.2783C28.7857 18.1331 29.4628 19.1383 29.9616 20.294C30.4605 21.4496 30.71 22.6844 30.71 23.9983C30.71 25.3122 30.4606 26.5473 29.962 27.7034C29.4633 28.8595 28.7866 29.8652 27.9317 30.7204C27.0769 31.5757 26.0716 32.2527 24.916 32.7516C23.7604 33.2505 22.5256 33.4999 21.2117 33.4999ZM19.3888 16.2211C20.1465 17.6186 21.1975 18.6811 22.5417 19.4087C23.886 20.1362 25.2754 20.5 26.71 20.5C26.9818 20.5 27.2469 20.4859 27.5052 20.4577C27.7635 20.4295 28.0254 20.3891 28.2908 20.3365C27.6228 19.0096 26.6552 17.9551 25.3879 17.173C24.1206 16.391 22.728 16 21.21 16C20.8741 16 20.5609 16.0189 20.2706 16.0567C19.9802 16.0945 19.6863 16.1493 19.3888 16.2211ZM13.4908 22.0904C14.4305 21.6199 15.3228 20.9324 16.1677 20.0279C17.0126 19.1234 17.5581 18.0391 17.8043 16.7749C16.7107 17.2711 15.7863 17.9842 15.0312 18.9144C14.276 19.8445 13.7626 20.9032 13.4908 22.0904Z" fill="#E9C176"/>
</svg>
