<svg width="33" height="48" viewBox="0 0 33 48" fill="none" xmlns="http://www.w3.org/2000/svg">
<rect width="32.17" height="48" rx="16.085" fill="#131313"/>
<path d="M16.3312 30.7693C16.5055 30.7526 16.6491 30.6879 16.7619 30.575C16.8747 30.4622 16.9311 30.3251 16.9311 30.1635C16.9311 29.9751 16.869 29.826 16.7446 29.7164C16.6203 29.6068 16.4638 29.5603 16.2754 29.577C15.5921 29.627 14.8478 29.4267 14.0427 28.976C13.2376 28.5254 12.735 27.7417 12.535 26.6251C12.5017 26.4545 12.4302 26.3206 12.3206 26.2231C12.211 26.1257 12.0805 26.077 11.9292 26.077C11.7472 26.077 11.5956 26.1453 11.4744 26.2818C11.3533 26.4183 11.3145 26.5936 11.3581 26.8077C11.6286 28.2603 12.2824 29.2988 13.3196 29.9231C14.3568 30.5475 15.3606 30.8295 16.3312 30.7693ZM16.085 33.4231C13.9427 33.4231 12.1571 32.6878 10.7283 31.2173C9.29946 29.7468 8.58504 27.9154 8.58504 25.7231C8.58504 24.1719 9.20587 22.4715 10.4475 20.6222C11.6892 18.7728 13.5683 16.7578 16.085 14.577C18.6017 16.7578 20.4808 18.7728 21.7225 20.6222C22.9641 22.4715 23.585 24.1719 23.585 25.7231C23.585 27.9154 22.8705 29.7468 21.4417 31.2173C20.0129 32.6878 18.2273 33.4231 16.085 33.4231ZM16.085 31.9231C17.8183 31.9231 19.2517 31.3356 20.385 30.1606C21.5183 28.9856 22.085 27.5065 22.085 25.7231C22.085 24.5065 21.5808 23.1315 20.5725 21.5981C19.5642 20.0648 18.0683 18.3898 16.085 16.5731C14.1017 18.3898 12.6058 20.0648 11.5975 21.5981C10.5892 23.1315 10.085 24.5065 10.085 25.7231C10.085 27.5065 10.6517 28.9856 11.785 30.1606C12.9183 31.3356 14.3517 31.9231 16.085 31.9231Z" fill="#E9C176"/>
</svg>
