<svg width="48" height="48" viewBox="0 0 48 48" fill="none" xmlns="http://www.w3.org/2000/svg">
<rect width="47.05" height="48" rx="23.525" fill="#131313"/>
<path d="M30.7173 32.7692L23.5635 25.6154L20.8288 28.35C20.9686 28.6 21.0682 28.8651 21.1279 29.1452C21.1875 29.4253 21.2173 29.7103 21.2173 30C21.2173 31.0039 20.8593 31.8638 20.1433 32.5798C19.4272 33.2958 18.5673 33.6538 17.5635 33.6538C16.5596 33.6538 15.6997 33.2958 14.9837 32.5798C14.2677 31.8638 13.9096 31.0039 13.9096 30C13.9096 28.9962 14.2677 28.1362 14.9837 27.4202C15.6997 26.7042 16.5596 26.3462 17.5635 26.3462C17.8532 26.3462 18.1381 26.376 18.4183 26.4356C18.6984 26.4952 18.9635 26.5949 19.2135 26.7347L21.9481 24L19.2135 21.2654C18.9635 21.4051 18.6984 21.5048 18.4183 21.5644C18.1381 21.624 17.8532 21.6538 17.5635 21.6538C16.5596 21.6538 15.6997 21.2958 14.9837 20.5798C14.2677 19.8638 13.9096 19.0039 13.9096 18C13.9096 16.9962 14.2677 16.1362 14.9837 15.4202C15.6997 14.7042 16.5596 14.3462 17.5635 14.3462C18.5673 14.3462 19.4272 14.7042 20.1433 15.4202C20.8593 16.1362 21.2173 16.9962 21.2173 18C21.2173 18.2898 21.1875 18.5747 21.1279 18.8548C21.0682 19.1349 20.9686 19.4 20.8288 19.65L33.1404 31.9615V32.7692H30.7173ZM26.3327 22.8462L24.7173 21.2308L30.7173 15.2308H33.1404V16.0385L26.3327 22.8462ZM17.5635 20.1539C18.1583 20.1539 18.666 19.9436 19.0866 19.5231C19.5071 19.1026 19.7173 18.5949 19.7173 18C19.7173 17.4051 19.5071 16.8974 19.0866 16.4769C18.666 16.0564 18.1583 15.8462 17.5635 15.8462C16.9686 15.8462 16.4609 16.0564 16.0404 16.4769C15.6199 16.8974 15.4096 17.4051 15.4096 18C15.4096 18.5949 15.6199 19.1026 16.0404 19.5231C16.4609 19.9436 16.9686 20.1539 17.5635 20.1539ZM23.5635 24.25C23.6327 24.25 23.6917 24.2256 23.7404 24.1769C23.7891 24.1282 23.8134 24.0692 23.8134 24C23.8134 23.9308 23.7891 23.8718 23.7404 23.8231C23.6917 23.7744 23.6327 23.75 23.5635 23.75C23.4942 23.75 23.4353 23.7744 23.3866 23.8231C23.3378 23.8718 23.3135 23.9308 23.3135 24C23.3135 24.0692 23.3378 24.1282 23.3866 24.1769C23.4353 24.2256 23.4942 24.25 23.5635 24.25ZM17.5635 32.1539C18.1583 32.1539 18.666 31.9436 19.0866 31.5231C19.5071 31.1026 19.7173 30.5949 19.7173 30C19.7173 29.4051 19.5071 28.8974 19.0866 28.4769C18.666 28.0564 18.1583 27.8462 17.5635 27.8462C16.9686 27.8462 16.4609 28.0564 16.0404 28.4769C15.6199 28.8974 15.4096 29.4051 15.4096 30C15.4096 30.5949 15.6199 31.1026 16.0404 31.5231C16.4609 31.9436 16.9686 32.1539 17.5635 32.1539Z" fill="#E9C176"/>
</svg>
